<svg width="996" height="619" xmlns="http://www.w3.org/2000/svg" xmlns:xlink="http://www.w3.org/1999/xlink" xml:space="preserve" overflow="hidden"><g transform="translate(-2717 -1501)"><path d="M3035 1691C3035 1586.07 3115.59 1501 3215 1501 3314.41 1501 3395 1586.07 3395 1691 3395 1795.93 3314.41 1881 3215 1881 3115.59 1881 3035 1795.93 3035 1691Z" fill="#B5B5B5" fill-rule="evenodd"/><path d="M3050 1716.5C3050 1679.77 3123.87 1650 3215 1650 3306.13 1650 3380 1679.77 3380 1716.5 3380 1753.23 3306.13 1783 3215 1783 3123.87 1783 3050 1753.23 3050 1716.5Z" fill="#B5B5B5" fill-rule="evenodd"/><text fill="#205681" font-family="Arial,Arial_MSFontService,sans-serif" font-weight="700" font-size="110" transform="matrix(1 0 0 1 3097.88 1738)">BUS</text><path d="M2717 1684.12 3000.61 1684.13 3000.61 1697.88 2717 1697.87ZM2993.73 1670.38 3034.98 1691 2993.73 1711.63Z" fill="#205681"/><path d="M7.80277e-06-6.875 283.606-6.87468 283.606 6.87532-7.80277e-06 6.875ZM276.731-20.6247 317.981 0.000360892 276.731 20.6253Z" fill="#205681" transform="matrix(-1 0 0 1 3712.98 1688)"/><path d="M3221.88 1881 3221.88 2042.71 3208.13 2042.71 3208.12 1881ZM3235.63 2035.83 3215 2077.08 3194.38 2035.83Z" fill="#205681"/></g></svg>