<svg width="1491" height="381" xmlns="http://www.w3.org/2000/svg" xmlns:xlink="http://www.w3.org/1999/xlink" xml:space="preserve" overflow="hidden"><defs><clipPath id="clip0"><rect x="2444" y="1582" width="1491" height="381"/></clipPath></defs><g clip-path="url(#clip0)" transform="translate(-2444 -1582)"><path d="M2762 1645.5C2762 1610.43 2790.43 1582 2825.5 1582L3510.5 1582C3545.57 1582 3574 1610.43 3574 1645.5L3574 1899.5C3574 1934.57 3545.57 1963 3510.5 1963L2825.5 1963C2790.43 1963 2762 1934.57 2762 1899.5Z" fill="#B5B5B5" fill-rule="evenodd"/><rect x="2828" y="1736" width="727" height="94.0002" fill="#B5B5B5"/><text fill="#205681" font-family="Arial,Arial_MSFontService,sans-serif" font-weight="700" font-size="110" transform="matrix(1 0 0 1 2827.63 1805)">CONVERTER</text><path d="M2444 1765.12 2727.61 1765.13 2727.61 1778.88 2444 1778.88ZM2720.73 1751.38 2761.98 1772 2720.73 1792.63Z" fill="#205681"/><path d="M3574 1765.12 3857.61 1765.13 3857.61 1778.88 3574 1778.88ZM3850.73 1751.38 3891.98 1772 3850.73 1792.63Z" fill="#205681"/></g></svg>