<svg width="1173" height="381" xmlns="http://www.w3.org/2000/svg" xmlns:xlink="http://www.w3.org/1999/xlink" xml:space="preserve" overflow="hidden"><defs><clipPath id="clip0"><rect x="2401" y="1582" width="1173" height="381"/></clipPath></defs><g clip-path="url(#clip0)" transform="translate(-2401 -1582)"><path d="M2762 1645.5C2762 1610.43 2790.43 1582 2825.5 1582L3510.5 1582C3545.57 1582 3574 1610.43 3574 1645.5L3574 1899.5C3574 1934.57 3545.57 1963 3510.5 1963L2825.5 1963C2790.43 1963 2762 1934.57 2762 1899.5Z" fill="#B5B5B5" fill-rule="evenodd"/><rect x="2895" y="1737" width="547" height="94.9999" fill="#B5B5B5"/><text fill="#205681" font-family="Arial,Arial_MSFontService,sans-serif" font-weight="700" font-size="110" transform="matrix(1 0 0 1 2894.73 1806)">STORAGE</text><path d="M2448 1717.12 2731.61 1717.13 2731.61 1730.88 2448 1730.87ZM2724.73 1703.38 2765.98 1724 2724.73 1744.63Z" fill="#205681"/><path d="M7.80277e-06-6.875 283.606-6.87468 283.606 6.87532-7.80277e-06 6.875ZM276.731-20.6247 317.981 0.000360892 276.731 20.6253Z" fill="#205681" transform="matrix(-1 0 0 1 2761.98 1821)"/></g></svg>